<?xml version="1.0" standalone="no"?><!DOCTYPE svg PUBLIC "-//W3C//DTD SVG 1.1//EN" "http://www.w3.org/Graphics/SVG/1.1/DTD/svg11.dtd"><svg t="1703945939329" class="icon" viewBox="0 0 1024 1024" version="1.1" xmlns="http://www.w3.org/2000/svg" p-id="4233" xmlns:xlink="http://www.w3.org/1999/xlink" width="32" height="32"><path d="M784.614911 235.636718 238.20317 235.636718c-45.140083 0-81.864496 36.724413-81.864496 81.864496l0 303.900451c0 45.140083 36.724413 81.864496 81.864496 81.864496L502.979556 703.266162l121.92284 120.946606c3.990894 3.959172 9.202593 5.936199 14.412244 5.936199 5.265934 0 10.529821-2.020006 14.530948-6.052856 7.959276-8.024767 7.90811-20.982894-0.116657-28.943193L525.82282 668.270113c-0.13303-0.132006-0.278339-0.24457-0.414439-0.372483-0.345877-0.325411-0.692778-0.649799-1.060145-0.950651-0.245593-0.200568-0.502443-0.376577-0.754177-0.563842-0.283456-0.210801-0.560772-0.426719-0.854461-0.623193-0.290619-0.193405-0.591471-0.363274-0.890276-0.540306-0.275269-0.163729-0.544399-0.333598-0.827855-0.485047-0.305969-0.162706-0.6191-0.301875-0.930185-0.448208-0.294712-0.138146-0.584308-0.282433-0.886183-0.407276-0.305969-0.125867-0.618077-0.229221-0.928139-0.339738-0.320295-0.11461-0.636496-0.234337-0.962931-0.332575-0.311085-0.093121-0.627287-0.163729-0.941442-0.242524-0.333598-0.082888-0.663102-0.173962-1.001817-0.240477-0.347924-0.068562-0.698918-0.110517-1.048889-0.159636-0.310062-0.044002-0.61603-0.100284-0.930185-0.12996-0.465604-0.045025-0.933255-0.057305-1.399883-0.070608-0.194428-0.005117-0.38374-0.029676-0.579191-0.029676L238.20317 662.333914c-22.570042 0-40.932248-18.362206-40.932248-40.932248L197.270922 317.501214c0-22.570042 18.362206-40.932248 40.932248-40.932248l546.411741 0c22.570042 0 40.932248 18.362206 40.932248 40.932248l0 303.900451c0 22.570042-18.362206 40.932248-40.932248 40.932248L659.783835 662.333914c-11.30344 0-20.466124 9.162684-20.466124 20.466124s9.162684 20.466124 20.466124 20.466124l124.831077 0c45.140083 0 81.864496-36.724413 81.864496-81.864496L866.479407 317.501214C866.479407 272.361131 829.754994 235.636718 784.614911 235.636718zM351.681688 470.556099m-30.699186 0a30 30 0 1 0 61.398372 0 30 30 0 1 0-61.398372 0ZM511.317455 470.556099m-30.699186 0a30 30 0 1 0 61.398372 0 30 30 0 1 0-61.398372 0ZM668.906609 470.556099m-30.699186 0a30 30 0 1 0 61.398372 0 30 30 0 1 0-61.398372 0Z" fill="#f9f5ee" p-id="4234"></path></svg>