<?xml version="1.0" standalone="no"?><!DOCTYPE svg PUBLIC "-//W3C//DTD SVG 1.1//EN" "http://www.w3.org/Graphics/SVG/1.1/DTD/svg11.dtd"><svg t="1703860455355" class="icon" viewBox="0 0 1024 1024" version="1.1" xmlns="http://www.w3.org/2000/svg" p-id="8895" xmlns:xlink="http://www.w3.org/1999/xlink" width="32" height="32"><path d="M160 832h704a31.146667 31.146667 0 0 1 23.04 8.96c5.973333 6.016 8.96 13.696 8.96 23.04a31.146667 31.146667 0 0 1-8.96 23.04 31.146667 31.146667 0 0 1-23.04 8.96H160a31.146667 31.146667 0 0 1-23.04-8.96 31.146667 31.146667 0 0 1-8.96-23.04 31.146667 31.146667 0 0 1 8.96-23.04 31.146667 31.146667 0 0 1 23.04-8.96z m384-253.994667l235.989333-235.989333L826.026667 386.986667l-317.013334 317.013333L192 386.986667l45.013333-44.970667 243.029334 242.986667V128.042667h64v450.005333h-0.042667z" fill="#fdfef7" fill-opacity=".96" p-id="8896"></path></svg>