<?xml version="1.0" standalone="no"?><!DOCTYPE svg PUBLIC "-//W3C//DTD SVG 1.1//EN" "http://www.w3.org/Graphics/SVG/1.1/DTD/svg11.dtd"><svg t="1703823765241" class="icon" viewBox="0 0 1024 1024" version="1.1" xmlns="http://www.w3.org/2000/svg" p-id="11375" xmlns:xlink="http://www.w3.org/1999/xlink" width="64" height="64"><path d="M185.051429 226.596571c-19.382857 0.292571-34.962286 17.188571-34.742858 37.741715a36.425143 36.425143 0 0 0 34.816 37.814857h417.645715c19.529143-0.219429 35.108571-17.188571 34.889143-37.814857 0.219429-20.553143-15.36-37.449143-34.816-37.741715H185.051429z m208.969142 226.596572H185.051429c-19.456 0.292571-35.108571 17.188571-34.816 37.814857-0.219429 20.553143 15.36 37.449143 34.816 37.741714h208.896c19.456-0.292571 35.035429-17.188571 34.816-37.741714a38.473143 38.473143 0 0 0-10.020572-26.550857 34.377143 34.377143 0 0 0-24.868571-11.264z m58.514286 453.266286c19.309714 0 34.816 16.822857 34.816 37.814857 0.219429 20.553143-15.36 37.449143-34.816 37.741714H139.264C62.464 982.016 0 914.285714 0 830.976V151.04C0 67.657143 62.390857 0 139.264 0h626.541714c76.8 0 139.264 67.730286 139.264 151.04v188.854857c0.146286 20.626286-15.36 37.522286-34.889143 37.814857a36.352 36.352 0 0 1-34.742857-37.814857V151.04c0-41.691429-31.085714-75.483429-69.632-75.483429H139.264c-38.546286 0-69.632 33.718857-69.632 75.483429v679.936c0 41.691429 31.085714 75.483429 69.632 75.483429h313.270857zM731.721143 1024a284.379429 284.379429 0 0 1-206.701714-90.843429 319.195429 319.195429 0 0 1-85.577143-218.989714c0-82.139429 30.793143-160.914286 85.577143-218.989714a284.379429 284.379429 0 0 1 206.701714-90.843429c77.531429 0.073143 151.917714 32.768 206.774857 90.843429A319.122286 319.122286 0 0 1 1024 714.166857c0 82.066286-30.72 160.914286-85.577143 218.989714A284.452571 284.452571 0 0 1 731.794286 1024z m0-60.708571a228.498286 228.498286 0 0 0 166.034286-73.142858 256.438857 256.438857 0 0 0 68.608-175.981714c0.146286-137.362286-104.886857-248.905143-234.642286-249.051428-129.682286 0.146286-234.788571 111.689143-234.569143 249.051428a256.292571 256.292571 0 0 0 68.534857 175.981714 228.717714 228.717714 0 0 0 166.034286 73.142858z m-24.868572-137.947429V604.891429c0-15.872 15.945143-25.088 27.574858-15.945143l139.776 110.226285a20.699429 20.699429 0 0 1 7.387428 15.945143 20.699429 20.699429 0 0 1-7.387428 16.091429l-139.776 110.153143c-11.556571 9.142857-27.574857-0.146286-27.574858-15.945143v-0.073143zM637.074286 604.891429c0-10.825143 7.826286-19.602286 17.554285-19.602286 9.581714 0 17.408 8.777143 17.408 19.602286v227.328c0 10.825143-7.826286 19.529143-17.481142 19.529142a17.554286 17.554286 0 0 1-12.580572-5.851428 19.675429 19.675429 0 0 1-4.900571-13.677714V604.891429z" fill="#fdfef7" p-id="11376"></path></svg>